<svg xmlns="http://www.w3.org/2000/svg" viewBox="0 0 128 128"><defs><linearGradient id="g" x1="15" y1="12" x2="111" y2="116" gradientUnits="userSpaceOnUse"><stop stop-color="#ff3150"/><stop offset=".48" stop-color="#d62643"/><stop offset="1" stop-color="#ff9a62"/></linearGradient><linearGradient id="b" x1="20" y1="20" x2="100" y2="105" gradientUnits="userSpaceOnUse"><stop stop-color="#252936"/><stop offset="1" stop-color="#07080b"/></linearGradient><filter id="s" x="-40%" y="-40%" width="180%" height="180%"><feDropShadow dx="0" dy="7" stdDeviation="8" flood-opacity=".35"/></filter></defs><rect x="4" y="4" width="120" height="120" rx="31" fill="url(#b)" stroke="#ffffff" stroke-opacity=".14"/><circle cx="64" cy="64" r="42" fill="none" stroke="url(#g)" stroke-width="2" stroke-opacity=".45"/><path d="M80 31H50c-12 0-21 8-21 19 0 10 6 16 19 19l25 6c6 1 8 4 8 8 0 5-4 8-12 8H30v11h40c17 0 27-8 27-20 0-11-7-17-21-20l-25-6c-5-1-7-3-7-7 0-4 4-7 10-7h26z" fill="url(#g)" filter="url(#s)" transform="skewX(-7)"/><path d="M92 22l13 13M101 93l-13 13" stroke="#fff" stroke-opacity=".18" stroke-width="2" stroke-linecap="round"/></svg>